<?xml version="1.0" encoding="UTF-8" standalone="no"?><!DOCTYPE svg PUBLIC "-//W3C//DTD SVG 1.1//EN" "http://www.w3.org/Graphics/SVG/1.1/DTD/svg11.dtd"><svg width="100%" height="100%" viewBox="0 0 998 271" version="1.1" xmlns="http://www.w3.org/2000/svg" xmlns:xlink="http://www.w3.org/1999/xlink" xml:space="preserve" xmlns:serif="http://www.serif.com/" style="fill-rule:evenodd;clip-rule:evenodd;stroke-linejoin:round;stroke-miterlimit:2;"><rect id="Dark-Transparent" x="0" y="0" width="997.302" height="270.508" style="fill:none;"/><text x="267px" y="205.523px" style="font-family:'Yantramanav-Regular', 'Yantramanav';font-size:166.667px;fill:#dae1e2;">Jetstream</text><g><g><path d="M226.294,58.851l-205.927,59.372c18.394,37.517 49.795,99.876 49.795,99.876l21.777,-52.889" style="fill:url(#_Linear1);"/><path d="M226.294,58.851l-113.647,119.899l-42.485,39.349l125.584,18.136" style="fill:url(#_Linear2);"/><path d="M115.085,176.517l111.209,-117.666l-30.548,177.384l-80.661,-59.718Zm-94.718,-58.294l205.927,-59.372l-134.355,106.359l-71.572,-46.987Z" style="fill:url(#_Linear3);"/><path d="M226.294,58.851l-158.488,66.038l24.133,40.321l134.355,-106.359Z" style="fill:url(#_Linear4);"/><path d="M115.085,176.517l66.233,12.76l44.976,-130.426l-111.209,117.666Z" style="fill:url(#_Linear5);"/></g></g><defs><linearGradient id="_Linear1" x1="0" y1="0" x2="1" y2="0" gradientUnits="userSpaceOnUse" gradientTransform="matrix(-29.7289,44.199,-44.199,-29.7289,99.8911,173.9)"><stop offset="0" style="stop-color:#e3500b;stop-opacity:1"/><stop offset="1" style="stop-color:#ff6d00;stop-opacity:1"/></linearGradient><linearGradient id="_Linear2" x1="0" y1="0" x2="1" y2="0" gradientUnits="userSpaceOnUse" gradientTransform="matrix(-29.7289,44.199,-44.199,-29.7289,99.8911,173.9)"><stop offset="0" style="stop-color:#e3500b;stop-opacity:1"/><stop offset="1" style="stop-color:#ff6d00;stop-opacity:1"/></linearGradient><linearGradient id="_Linear3" x1="0" y1="0" x2="1" y2="0" gradientUnits="userSpaceOnUse" gradientTransform="matrix(-178.257,164.104,-164.104,-178.257,293.342,12.4136)"><stop offset="0" style="stop-color:#e3ff00;stop-opacity:1"/><stop offset="0.5" style="stop-color:#eadb00;stop-opacity:1"/><stop offset="1" style="stop-color:#ff6d00;stop-opacity:1"/></linearGradient><linearGradient id="_Linear4" x1="0" y1="0" x2="1" y2="0" gradientUnits="userSpaceOnUse" gradientTransform="matrix(113.836,-125.766,125.766,113.836,70.1622,218.099)"><stop offset="0" style="stop-color:#7d00ff;stop-opacity:1"/><stop offset="1" style="stop-color:#00bbae;stop-opacity:1"/></linearGradient><linearGradient id="_Linear5" x1="0" y1="0" x2="1" y2="0" gradientUnits="userSpaceOnUse" gradientTransform="matrix(113.836,-125.766,125.766,113.836,70.1622,218.099)"><stop offset="0" style="stop-color:#7d00ff;stop-opacity:1"/><stop offset="1" style="stop-color:#00bbae;stop-opacity:1"/></linearGradient></defs></svg>