<?xml version="1.0" encoding="UTF-8" standalone="no"?>
<!DOCTYPE svg PUBLIC "-//W3C//DTD SVG 1.1//EN" "http://www.w3.org/Graphics/SVG/1.1/DTD/svg11.dtd">
<svg xmlns:serif="http://www.serif.com/" width="100%" height="100%" viewBox="0 0 1287 1203" version="1.1"
     xmlns="http://www.w3.org/2000/svg" xml:space="preserve"
     style="fill-rule:evenodd;clip-rule:evenodd;stroke-linecap:round;stroke-miterlimit:2;">
    <rect id="Artboard1" x="0" y="-0" width="1286.7" height="1202.63" style="fill:none;"/>
    <clipPath id="_clip1">
        <rect id="Artboard11" serif:id="Artboard1" x="0" y="-0" width="1286.7" height="1202.63"/>
    </clipPath>
    <g clip-path="url(#_clip1)">
        <g transform="matrix(0.867879,0,0,0.782567,0,1)">
            <rect x="0" y="0" width="1482.58" height="1536.77"/>
        </g>
        <g transform="matrix(1,0,0,1,0,72)">
            <path d="M643.35,802.72L693.407,622.248L509.35,428.884L435.589,234.832L619.991,73.179L680.193,16.004"
                  style="fill:none;stroke:rgb(249,0,129);stroke-width:4.17px;"/>
        </g>
        <g transform="matrix(0.818561,0,0,0.818561,116.729,94.3557)">
            <circle cx="643.35" cy="1003.15" r="913.546"
                    style="fill:none;stroke:white;stroke-width:4.78px;stroke-miterlimit:1;"/>
        </g>
        <g transform="matrix(0.630694,0,0,0.630694,237.593,283.815)">
            <circle cx="643.35" cy="1003.15" r="913.546"
                    style="fill:none;stroke:white;stroke-width:6.2px;stroke-linecap:square;stroke-linejoin:round;stroke-miterlimit:1.5;stroke-dasharray:18.6,12.4,0,0;"/>
        </g>
        <g transform="matrix(0.40832,0,0,0.40832,380.657,505.889)">
            <circle cx="643.35" cy="1003.15" r="913.546"
                    style="fill:none;stroke:white;stroke-width:9.58px;stroke-linecap:square;stroke-linejoin:round;stroke-miterlimit:1.5;stroke-dasharray:28.73,19.15,0,0;"/>
        </g>
        <g transform="matrix(0.215341,0,0,0.215341,504.81,699.476)">
            <circle cx="643.35" cy="1003.15" r="913.546"
                    style="fill:none;stroke:white;stroke-width:18.16px;stroke-linecap:square;stroke-linejoin:round;stroke-miterlimit:1.5;stroke-dasharray:54.48,36.32,0,0;"/>
        </g>
        <g transform="matrix(1,0,0,0.483268,-2.27374e-13,460.954)">
            <rect x="0" y="942.625" width="1286.7" height="594.149"/>
        </g>
        <g transform="matrix(1,0,0,1,-8.21767,54.9472)">
            <g transform="matrix(29.1667,0,0,29.1667,260.481,899.706)">
                <path d="M0.244,-0.689C0.348,-0.689 0.432,-0.665 0.495,-0.617C0.558,-0.568 0.589,-0.479 0.589,-0.348C0.589,-0.221 0.558,-0.131 0.495,-0.079C0.432,-0.026 0.355,-0 0.265,-0L0.1,-0L0.1,-0.689L0.244,-0.689ZM0.195,-0.613L0.195,-0.075L0.272,-0.075C0.336,-0.075 0.388,-0.095 0.428,-0.134C0.468,-0.173 0.488,-0.245 0.488,-0.348C0.488,-0.421 0.478,-0.476 0.457,-0.516C0.436,-0.555 0.41,-0.581 0.378,-0.594C0.346,-0.607 0.308,-0.613 0.265,-0.613L0.195,-0.613Z"
                      style="fill:rgb(0,227,255);fill-rule:nonzero;"/>
            </g>
            <g transform="matrix(29.1667,0,0,29.1667,279.265,899.706)">
                <path d="M0.279,-0.679C0.353,-0.679 0.409,-0.65 0.447,-0.591C0.484,-0.532 0.503,-0.446 0.503,-0.334C0.503,-0.222 0.484,-0.136 0.447,-0.077C0.409,-0.018 0.353,0.012 0.279,0.012C0.205,0.012 0.149,-0.018 0.112,-0.077C0.074,-0.136 0.055,-0.222 0.055,-0.334C0.055,-0.446 0.074,-0.532 0.112,-0.591C0.149,-0.65 0.205,-0.679 0.279,-0.679ZM0.279,-0.606C0.236,-0.606 0.203,-0.585 0.183,-0.542C0.162,-0.499 0.151,-0.43 0.151,-0.334C0.151,-0.238 0.162,-0.169 0.183,-0.126C0.203,-0.083 0.236,-0.061 0.279,-0.061C0.322,-0.061 0.354,-0.083 0.375,-0.126C0.396,-0.169 0.407,-0.238 0.407,-0.334C0.407,-0.429 0.396,-0.499 0.375,-0.542C0.354,-0.585 0.322,-0.606 0.279,-0.606Z"
                      style="fill:rgb(0,227,255);fill-rule:nonzero;"/>
            </g>
        </g>
        <g transform="matrix(1,0,0,1,-211.606,54.9472)">
            <g transform="matrix(29.1667,0,0,29.1667,262.479,899.706)">
                <path d="M0.244,-0.689C0.348,-0.689 0.432,-0.665 0.495,-0.617C0.558,-0.568 0.589,-0.479 0.589,-0.348C0.589,-0.221 0.558,-0.131 0.495,-0.079C0.432,-0.026 0.355,-0 0.265,-0L0.1,-0L0.1,-0.689L0.244,-0.689ZM0.195,-0.613L0.195,-0.075L0.272,-0.075C0.336,-0.075 0.388,-0.095 0.428,-0.134C0.468,-0.173 0.488,-0.245 0.488,-0.348C0.488,-0.421 0.478,-0.476 0.457,-0.516C0.436,-0.555 0.41,-0.581 0.378,-0.594C0.346,-0.607 0.308,-0.613 0.265,-0.613L0.195,-0.613Z"
                      style="fill:rgb(0,227,255);fill-rule:nonzero;"/>
            </g>
            <g transform="matrix(29.1667,0,0,29.1667,280.913,899.706)">
                <path d="M0.323,-0.669L0.323,-0L0.231,-0L0.231,-0.571L0.075,-0.476L0.035,-0.541L0.242,-0.669L0.323,-0.669Z"
                      style="fill:rgb(0,227,255);fill-rule:nonzero;"/>
            </g>
        </g>
        <g transform="matrix(1,0,0,1,34.8507,109.062)">
            <g transform="matrix(0.718359,0,0,1,92.3336,-33.1949)">
                <rect x="425.749" y="172.339" width="241.499" height="43.039"/>
            </g>
            <g transform="matrix(1,0,0,1,227.399,-176.277)">
                <g transform="matrix(29.1667,0,0,29.1667,187.27,347.879)">
                    <path d="M0.507,-0.689L0.497,-0.608L0.306,-0.608L0.306,-0L0.211,-0L0.211,-0.608L0.015,-0.608L0.015,-0.689L0.507,-0.689Z"
                          style="fill:rgb(255,219,0);fill-rule:nonzero;"/>
                </g>
                <g transform="matrix(29.1667,0,0,29.1667,200.891,347.879)">
                    <path d="M0.467,-0L0.415,-0.173L0.154,-0.173L0.102,-0L0.006,-0L0.227,-0.689L0.347,-0.689L0.567,-0L0.467,-0ZM0.177,-0.25L0.392,-0.25L0.285,-0.61L0.177,-0.25Z"
                          style="fill:rgb(255,219,0);fill-rule:nonzero;"/>
                </g>
                <g transform="matrix(29.1667,0,0,29.1667,217.604,347.879)">
                    <path d="M0.27,-0.701C0.316,-0.701 0.355,-0.695 0.388,-0.682C0.421,-0.669 0.452,-0.648 0.483,-0.621L0.431,-0.563C0.405,-0.584 0.38,-0.599 0.355,-0.609C0.33,-0.618 0.303,-0.623 0.274,-0.623C0.238,-0.623 0.208,-0.615 0.185,-0.598C0.162,-0.581 0.15,-0.557 0.15,-0.525C0.15,-0.505 0.154,-0.488 0.162,-0.474C0.17,-0.461 0.185,-0.448 0.206,-0.437C0.228,-0.426 0.26,-0.414 0.301,-0.401C0.344,-0.388 0.38,-0.373 0.409,-0.358C0.438,-0.343 0.461,-0.322 0.478,-0.295C0.496,-0.268 0.505,-0.233 0.505,-0.192C0.505,-0.152 0.495,-0.117 0.475,-0.086C0.456,-0.055 0.428,-0.031 0.391,-0.014C0.354,0.003 0.31,0.012 0.259,0.012C0.164,0.012 0.086,-0.018 0.025,-0.077L0.077,-0.135C0.105,-0.112 0.133,-0.095 0.162,-0.084C0.191,-0.072 0.223,-0.066 0.258,-0.066C0.301,-0.066 0.336,-0.077 0.364,-0.098C0.392,-0.118 0.406,-0.149 0.406,-0.189C0.406,-0.212 0.402,-0.231 0.393,-0.246C0.384,-0.261 0.37,-0.274 0.348,-0.286C0.328,-0.298 0.297,-0.31 0.257,-0.322C0.186,-0.343 0.135,-0.369 0.102,-0.399C0.069,-0.429 0.053,-0.47 0.053,-0.521C0.053,-0.556 0.062,-0.587 0.081,-0.614C0.099,-0.641 0.125,-0.663 0.158,-0.678C0.191,-0.693 0.228,-0.701 0.27,-0.701Z"
                          style="fill:rgb(255,219,0);fill-rule:nonzero;"/>
                </g>
                <g transform="matrix(29.1667,0,0,29.1667,233.5,347.879)">
                    <path d="M0.195,-0.689L0.195,-0L0.1,-0L0.1,-0.689L0.195,-0.689ZM0.57,-0.689L0.309,-0.374L0.589,-0L0.472,-0L0.2,-0.368L0.462,-0.689L0.57,-0.689Z"
                          style="fill:rgb(255,219,0);fill-rule:nonzero;"/>
                </g>
                <g transform="matrix(29.1667,0,0,29.1667,249.541,347.879)">
                    <path d="M0.323,-0.669L0.323,-0L0.231,-0L0.231,-0.571L0.075,-0.476L0.035,-0.541L0.242,-0.669L0.323,-0.669Z"
                          style="fill:rgb(255,219,0);fill-rule:nonzero;"/>
                </g>
                <g transform="matrix(29.1667,0,0,29.1667,262.17,347.879)">
                    <path d="M0.228,-0.679C0.268,-0.679 0.303,-0.671 0.334,-0.655C0.364,-0.639 0.387,-0.617 0.404,-0.59C0.421,-0.562 0.429,-0.531 0.429,-0.496C0.429,-0.455 0.42,-0.416 0.402,-0.379C0.383,-0.342 0.355,-0.301 0.317,-0.258C0.279,-0.215 0.221,-0.154 0.144,-0.077L0.445,-0.077L0.434,-0L0.039,-0L0.039,-0.073C0.128,-0.166 0.192,-0.234 0.229,-0.277C0.266,-0.32 0.293,-0.357 0.309,-0.389C0.325,-0.421 0.333,-0.455 0.333,-0.492C0.333,-0.527 0.323,-0.554 0.303,-0.574C0.283,-0.593 0.256,-0.603 0.223,-0.603C0.196,-0.603 0.172,-0.597 0.151,-0.586C0.13,-0.575 0.108,-0.556 0.085,-0.53L0.025,-0.578C0.052,-0.612 0.083,-0.637 0.116,-0.654C0.149,-0.671 0.187,-0.679 0.228,-0.679Z"
                          style="fill:rgb(255,219,0);fill-rule:nonzero;"/>
                </g>
                <g transform="matrix(29.1667,0,0,29.1667,276.462,347.879)">
                    <path d="M0.225,-0.679C0.266,-0.679 0.302,-0.671 0.332,-0.656C0.361,-0.641 0.384,-0.62 0.4,-0.594C0.415,-0.568 0.423,-0.54 0.423,-0.509C0.423,-0.468 0.411,-0.435 0.388,-0.408C0.364,-0.382 0.332,-0.364 0.293,-0.355C0.338,-0.351 0.374,-0.335 0.402,-0.307C0.43,-0.279 0.444,-0.241 0.444,-0.193C0.444,-0.154 0.435,-0.119 0.416,-0.088C0.397,-0.057 0.371,-0.032 0.336,-0.015C0.301,0.003 0.261,0.012 0.216,0.012C0.175,0.012 0.138,0.004 0.104,-0.011C0.07,-0.025 0.04,-0.048 0.015,-0.078L0.07,-0.129C0.092,-0.106 0.115,-0.09 0.138,-0.079C0.161,-0.068 0.186,-0.063 0.213,-0.063C0.255,-0.063 0.288,-0.075 0.312,-0.099C0.336,-0.122 0.348,-0.154 0.348,-0.194C0.348,-0.238 0.337,-0.269 0.314,-0.287C0.291,-0.305 0.258,-0.314 0.215,-0.314L0.165,-0.314L0.176,-0.385L0.21,-0.385C0.245,-0.385 0.274,-0.395 0.297,-0.416C0.32,-0.437 0.331,-0.466 0.331,-0.503C0.331,-0.534 0.321,-0.559 0.301,-0.578C0.281,-0.596 0.254,-0.605 0.22,-0.605C0.194,-0.605 0.17,-0.6 0.149,-0.591C0.127,-0.582 0.105,-0.566 0.082,-0.545L0.034,-0.6C0.091,-0.653 0.154,-0.679 0.225,-0.679Z"
                          style="fill:rgb(255,219,0);fill-rule:nonzero;"/>
                </g>
                <g transform="matrix(29.1667,0,0,29.1667,290.87,347.879)">
                    <path d="M0.502,-0.238L0.502,-0.165L0.415,-0.165L0.415,-0L0.326,-0L0.326,-0.165L0.04,-0.165L0.04,-0.231L0.241,-0.679L0.318,-0.647L0.137,-0.238L0.327,-0.238L0.335,-0.418L0.415,-0.418L0.415,-0.238L0.502,-0.238Z"
                          style="fill:rgb(255,219,0);fill-rule:nonzero;"/>
                </g>
            </g>
            <g transform="matrix(0.54717,0,0,0.471698,231.283,-329.83)">
                <path d="M310.093,1085.47L334.845,1134.97L285.342,1134.97L310.093,1085.47Z"
                      style="fill:none;stroke:rgb(255,219,0);stroke-width:6.75px;stroke-linecap:square;stroke-linejoin:round;stroke-miterlimit:1.5;"/>
            </g>
        </g>
        <g transform="matrix(1,0,0,1,108.551,306.886)">
            <g transform="matrix(0.870917,0,0,1,27.3822,-33.1949)">
                <rect x="425.749" y="172.339" width="241.499" height="43.039"/>
            </g>
            <g transform="matrix(1,0,0,1,227.399,-176.277)">
                <g transform="matrix(29.1667,0,0,29.1667,187.27,347.879)">
                    <path d="M0.341,-0.701C0.382,-0.701 0.417,-0.696 0.446,-0.685C0.474,-0.674 0.503,-0.657 0.532,-0.633L0.48,-0.572C0.438,-0.606 0.394,-0.623 0.347,-0.623C0.29,-0.623 0.244,-0.601 0.209,-0.557C0.173,-0.513 0.156,-0.442 0.156,-0.345C0.156,-0.25 0.173,-0.181 0.208,-0.136C0.243,-0.091 0.289,-0.068 0.346,-0.068C0.375,-0.068 0.401,-0.073 0.423,-0.083C0.445,-0.093 0.468,-0.107 0.493,-0.125L0.54,-0.065C0.519,-0.043 0.491,-0.025 0.458,-0.01C0.425,0.005 0.386,0.012 0.343,0.012C0.287,0.012 0.237,-0.002 0.194,-0.029C0.15,-0.057 0.116,-0.098 0.092,-0.152C0.067,-0.205 0.055,-0.27 0.055,-0.345C0.055,-0.42 0.068,-0.485 0.093,-0.539C0.118,-0.592 0.153,-0.633 0.196,-0.66C0.239,-0.687 0.288,-0.701 0.341,-0.701Z"
                          style="fill:rgb(237,66,255);fill-rule:nonzero;"/>
                </g>
                <g transform="matrix(29.1667,0,0,29.1667,203.604,347.879)">
                    <path d="M0.467,-0L0.415,-0.173L0.154,-0.173L0.102,-0L0.006,-0L0.227,-0.689L0.347,-0.689L0.567,-0L0.467,-0ZM0.177,-0.25L0.392,-0.25L0.285,-0.61L0.177,-0.25Z"
                          style="fill:rgb(237,66,255);fill-rule:nonzero;"/>
                </g>
                <g transform="matrix(29.1667,0,0,29.1667,220.316,347.879)">
                    <path d="M0.195,-0.689L0.195,-0.083L0.478,-0.083L0.467,-0L0.1,-0L0.1,-0.689L0.195,-0.689Z"
                          style="fill:rgb(237,66,255);fill-rule:nonzero;"/>
                </g>
                <g transform="matrix(29.1667,0,0,29.1667,234.404,347.879)">
                    <path d="M0.228,-0.679C0.268,-0.679 0.303,-0.671 0.334,-0.655C0.364,-0.639 0.387,-0.617 0.404,-0.59C0.421,-0.562 0.429,-0.531 0.429,-0.496C0.429,-0.455 0.42,-0.416 0.402,-0.379C0.383,-0.342 0.355,-0.301 0.317,-0.258C0.279,-0.215 0.221,-0.154 0.144,-0.077L0.445,-0.077L0.434,-0L0.039,-0L0.039,-0.073C0.128,-0.166 0.192,-0.234 0.229,-0.277C0.266,-0.32 0.293,-0.357 0.309,-0.389C0.325,-0.421 0.333,-0.455 0.333,-0.492C0.333,-0.527 0.323,-0.554 0.303,-0.574C0.283,-0.593 0.256,-0.603 0.223,-0.603C0.196,-0.603 0.172,-0.597 0.151,-0.586C0.13,-0.575 0.108,-0.556 0.085,-0.53L0.025,-0.578C0.052,-0.612 0.083,-0.637 0.116,-0.654C0.149,-0.671 0.187,-0.679 0.228,-0.679Z"
                          style="fill:rgb(237,66,255);fill-rule:nonzero;"/>
                </g>
                <g transform="matrix(29.1667,0,0,29.1667,248.112,347.879)">
                    <path d="M0.323,-0.669L0.323,-0L0.231,-0L0.231,-0.571L0.075,-0.476L0.035,-0.541L0.242,-0.669L0.323,-0.669Z"
                          style="fill:rgb(237,66,255);fill-rule:nonzero;"/>
                </g>
                <g transform="matrix(29.1667,0,0,29.1667,260.741,347.879)">
                    <path d="M0.502,-0.238L0.502,-0.165L0.415,-0.165L0.415,-0L0.326,-0L0.326,-0.165L0.04,-0.165L0.04,-0.231L0.241,-0.679L0.318,-0.647L0.137,-0.238L0.327,-0.238L0.335,-0.418L0.415,-0.418L0.415,-0.238L0.502,-0.238Z"
                          style="fill:rgb(237,66,255);fill-rule:nonzero;"/>
                </g>
                <g transform="matrix(29.1667,0,0,29.1667,275.558,347.879)">
                    <path d="M0.414,-0.669L0.414,-0.6L0.164,0.01L0.08,-0.018L0.321,-0.594L0.025,-0.594L0.025,-0.669L0.414,-0.669Z"
                          style="fill:rgb(237,66,255);fill-rule:nonzero;"/>
                </g>
            </g>
            <g transform="matrix(1,0,0,1,-108.551,-234.886)">
                <circle cx="509.508" cy="428.745" r="15.444"
                        style="fill:none;stroke:rgb(237,66,255);stroke-width:3.45px;stroke-linecap:square;stroke-linejoin:round;stroke-miterlimit:1.5;"/>
            </g>
        </g>
        <g transform="matrix(1,0,0,1,-252.002,383.927)">
            <g transform="matrix(0.870917,0,0,1,27.3822,-33.1949)">
                <rect x="425.749" y="172.339" width="241.499" height="43.039"/>
            </g>
            <g transform="matrix(1,0,0,1,227.399,-182.637)">
                <g transform="matrix(29.1667,0,0,29.1667,187.27,347.879)">
                    <path d="M0.473,-0.689L0.462,-0.613L0.195,-0.613L0.195,-0.388L0.427,-0.388L0.427,-0.312L0.195,-0.312L0.195,-0.076L0.481,-0.076L0.481,-0L0.1,-0L0.1,-0.689L0.473,-0.689Z"
                          style="fill:rgb(237,66,255);fill-rule:nonzero;"/>
                </g>
                <g transform="matrix(29.1667,0,0,29.1667,202.875,347.879)">
                    <path d="M0.716,-0L0.624,-0L0.6,-0.311C0.59,-0.433 0.584,-0.527 0.583,-0.592L0.434,-0.078L0.345,-0.078L0.188,-0.593C0.188,-0.51 0.184,-0.413 0.175,-0.304L0.152,-0L0.062,-0L0.119,-0.689L0.247,-0.689L0.392,-0.188L0.53,-0.689L0.659,-0.689L0.716,-0Z"
                          style="fill:rgb(237,66,255);fill-rule:nonzero;"/>
                </g>
                <g transform="matrix(29.1667,0,0,29.1667,225.566,347.879)">
                    <path d="M0.467,-0L0.415,-0.173L0.154,-0.173L0.102,-0L0.006,-0L0.227,-0.689L0.347,-0.689L0.567,-0L0.467,-0ZM0.177,-0.25L0.392,-0.25L0.285,-0.61L0.177,-0.25Z"
                          style="fill:rgb(237,66,255);fill-rule:nonzero;"/>
                </g>
                <g transform="matrix(29.1667,0,0,29.1667,242.279,347.879)">
                    <rect x="0.1" y="-0.689" width="0.095" height="0.689"
                          style="fill:rgb(237,66,255);fill-rule:nonzero;"/>
                </g>
                <g transform="matrix(29.1667,0,0,29.1667,250.883,347.879)">
                    <path d="M0.195,-0.689L0.195,-0.083L0.478,-0.083L0.467,-0L0.1,-0L0.1,-0.689L0.195,-0.689Z"
                          style="fill:rgb(237,66,255);fill-rule:nonzero;"/>
                </g>
                <g transform="matrix(29.1667,0,0,29.1667,264.97,347.879)">
                    <path d="M0.228,-0.679C0.268,-0.679 0.303,-0.671 0.334,-0.655C0.364,-0.639 0.387,-0.617 0.404,-0.59C0.421,-0.562 0.429,-0.531 0.429,-0.496C0.429,-0.455 0.42,-0.416 0.402,-0.379C0.383,-0.342 0.355,-0.301 0.317,-0.258C0.279,-0.215 0.221,-0.154 0.144,-0.077L0.445,-0.077L0.434,-0L0.039,-0L0.039,-0.073C0.128,-0.166 0.192,-0.234 0.229,-0.277C0.266,-0.32 0.293,-0.357 0.309,-0.389C0.325,-0.421 0.333,-0.455 0.333,-0.492C0.333,-0.527 0.323,-0.554 0.303,-0.574C0.283,-0.593 0.256,-0.603 0.223,-0.603C0.196,-0.603 0.172,-0.597 0.151,-0.586C0.13,-0.575 0.108,-0.556 0.085,-0.53L0.025,-0.578C0.052,-0.612 0.083,-0.637 0.116,-0.654C0.149,-0.671 0.187,-0.679 0.228,-0.679Z"
                          style="fill:rgb(237,66,255);fill-rule:nonzero;"/>
                </g>
                <g transform="matrix(29.1667,0,0,29.1667,278.679,347.879)">
                    <path d="M0.323,-0.669L0.323,-0L0.231,-0L0.231,-0.571L0.075,-0.476L0.035,-0.541L0.242,-0.669L0.323,-0.669Z"
                          style="fill:rgb(237,66,255);fill-rule:nonzero;"/>
                </g>
                <g transform="matrix(29.1667,0,0,29.1667,291.308,347.879)">
                    <path d="M0.502,-0.238L0.502,-0.165L0.415,-0.165L0.415,-0L0.326,-0L0.326,-0.165L0.04,-0.165L0.04,-0.231L0.241,-0.679L0.318,-0.647L0.137,-0.238L0.327,-0.238L0.335,-0.418L0.415,-0.418L0.415,-0.238L0.502,-0.238Z"
                          style="fill:rgb(237,66,255);fill-rule:nonzero;"/>
                </g>
                <g transform="matrix(29.1667,0,0,29.1667,306.125,347.879)">
                    <path d="M0.414,-0.669L0.414,-0.6L0.164,0.01L0.08,-0.018L0.321,-0.594L0.025,-0.594L0.025,-0.669L0.414,-0.669Z"
                          style="fill:rgb(237,66,255);fill-rule:nonzero;"/>
                </g>
            </g>
            <g transform="matrix(1,0,0,1,-108.551,-234.886)">
                <circle cx="509.508" cy="428.745" r="15.444"
                        style="fill:none;stroke:rgb(237,66,255);stroke-width:3.45px;stroke-linecap:square;stroke-linejoin:round;stroke-miterlimit:1.5;"/>
            </g>
        </g>
        <g transform="matrix(1,0,0,1,292.779,496.417)">
            <g transform="matrix(0.736537,0,0,1,84.5943,-33.1949)">
                <rect x="425.749" y="172.339" width="241.499" height="43.039"/>
            </g>
            <g transform="matrix(1,0,0,1,227.399,-176.277)">
                <g transform="matrix(29.1667,0,0,29.1667,187.27,347.879)">
                    <path d="M0.507,-0.689L0.497,-0.608L0.306,-0.608L0.306,-0L0.211,-0L0.211,-0.608L0.015,-0.608L0.015,-0.689L0.507,-0.689Z"
                          style="fill:rgb(255,219,0);fill-rule:nonzero;"/>
                </g>
                <g transform="matrix(29.1667,0,0,29.1667,200.891,347.879)">
                    <path d="M0.467,-0L0.415,-0.173L0.154,-0.173L0.102,-0L0.006,-0L0.227,-0.689L0.347,-0.689L0.567,-0L0.467,-0ZM0.177,-0.25L0.392,-0.25L0.285,-0.61L0.177,-0.25Z"
                          style="fill:rgb(255,219,0);fill-rule:nonzero;"/>
                </g>
                <g transform="matrix(29.1667,0,0,29.1667,217.604,347.879)">
                    <path d="M0.27,-0.701C0.316,-0.701 0.355,-0.695 0.388,-0.682C0.421,-0.669 0.452,-0.648 0.483,-0.621L0.431,-0.563C0.405,-0.584 0.38,-0.599 0.355,-0.609C0.33,-0.618 0.303,-0.623 0.274,-0.623C0.238,-0.623 0.208,-0.615 0.185,-0.598C0.162,-0.581 0.15,-0.557 0.15,-0.525C0.15,-0.505 0.154,-0.488 0.162,-0.474C0.17,-0.461 0.185,-0.448 0.206,-0.437C0.228,-0.426 0.26,-0.414 0.301,-0.401C0.344,-0.388 0.38,-0.373 0.409,-0.358C0.438,-0.343 0.461,-0.322 0.478,-0.295C0.496,-0.268 0.505,-0.233 0.505,-0.192C0.505,-0.152 0.495,-0.117 0.475,-0.086C0.456,-0.055 0.428,-0.031 0.391,-0.014C0.354,0.003 0.31,0.012 0.259,0.012C0.164,0.012 0.086,-0.018 0.025,-0.077L0.077,-0.135C0.105,-0.112 0.133,-0.095 0.162,-0.084C0.191,-0.072 0.223,-0.066 0.258,-0.066C0.301,-0.066 0.336,-0.077 0.364,-0.098C0.392,-0.118 0.406,-0.149 0.406,-0.189C0.406,-0.212 0.402,-0.231 0.393,-0.246C0.384,-0.261 0.37,-0.274 0.348,-0.286C0.328,-0.298 0.297,-0.31 0.257,-0.322C0.186,-0.343 0.135,-0.369 0.102,-0.399C0.069,-0.429 0.053,-0.47 0.053,-0.521C0.053,-0.556 0.062,-0.587 0.081,-0.614C0.099,-0.641 0.125,-0.663 0.158,-0.678C0.191,-0.693 0.228,-0.701 0.27,-0.701Z"
                          style="fill:rgb(255,219,0);fill-rule:nonzero;"/>
                </g>
                <g transform="matrix(29.1667,0,0,29.1667,233.5,347.879)">
                    <path d="M0.195,-0.689L0.195,-0L0.1,-0L0.1,-0.689L0.195,-0.689ZM0.57,-0.689L0.309,-0.374L0.589,-0L0.472,-0L0.2,-0.368L0.462,-0.689L0.57,-0.689Z"
                          style="fill:rgb(255,219,0);fill-rule:nonzero;"/>
                </g>
                <g transform="matrix(29.1667,0,0,29.1667,249.541,347.879)">
                    <path d="M0.323,-0.669L0.323,-0L0.231,-0L0.231,-0.571L0.075,-0.476L0.035,-0.541L0.242,-0.669L0.323,-0.669Z"
                          style="fill:rgb(255,219,0);fill-rule:nonzero;"/>
                </g>
                <g transform="matrix(29.1667,0,0,29.1667,262.17,347.879)">
                    <path d="M0.228,-0.679C0.268,-0.679 0.303,-0.671 0.334,-0.655C0.364,-0.639 0.387,-0.617 0.404,-0.59C0.421,-0.562 0.429,-0.531 0.429,-0.496C0.429,-0.455 0.42,-0.416 0.402,-0.379C0.383,-0.342 0.355,-0.301 0.317,-0.258C0.279,-0.215 0.221,-0.154 0.144,-0.077L0.445,-0.077L0.434,-0L0.039,-0L0.039,-0.073C0.128,-0.166 0.192,-0.234 0.229,-0.277C0.266,-0.32 0.293,-0.357 0.309,-0.389C0.325,-0.421 0.333,-0.455 0.333,-0.492C0.333,-0.527 0.323,-0.554 0.303,-0.574C0.283,-0.593 0.256,-0.603 0.223,-0.603C0.196,-0.603 0.172,-0.597 0.151,-0.586C0.13,-0.575 0.108,-0.556 0.085,-0.53L0.025,-0.578C0.052,-0.612 0.083,-0.637 0.116,-0.654C0.149,-0.671 0.187,-0.679 0.228,-0.679Z"
                          style="fill:rgb(255,219,0);fill-rule:nonzero;"/>
                </g>
                <g transform="matrix(29.1667,0,0,29.1667,275.82,347.879)">
                    <path d="M0.502,-0.238L0.502,-0.165L0.415,-0.165L0.415,-0L0.326,-0L0.326,-0.165L0.04,-0.165L0.04,-0.231L0.241,-0.679L0.318,-0.647L0.137,-0.238L0.327,-0.238L0.335,-0.418L0.415,-0.418L0.415,-0.238L0.502,-0.238Z"
                          style="fill:rgb(255,219,0);fill-rule:nonzero;"/>
                </g>
                <g transform="matrix(29.1667,0,0,29.1667,291.045,347.879)">
                    <path d="M0.42,-0.597L0.159,-0.597L0.159,-0.4C0.193,-0.417 0.229,-0.426 0.266,-0.426C0.323,-0.426 0.369,-0.407 0.404,-0.37C0.439,-0.332 0.456,-0.28 0.456,-0.214C0.456,-0.17 0.446,-0.131 0.427,-0.097C0.408,-0.062 0.381,-0.035 0.345,-0.017C0.311,0.002 0.27,0.012 0.224,0.012C0.183,0.012 0.147,0.005 0.115,-0.01C0.083,-0.024 0.053,-0.045 0.026,-0.073L0.08,-0.126C0.101,-0.105 0.123,-0.089 0.146,-0.079C0.169,-0.068 0.194,-0.063 0.223,-0.063C0.266,-0.063 0.299,-0.076 0.324,-0.103C0.348,-0.13 0.36,-0.167 0.36,-0.216C0.36,-0.265 0.349,-0.3 0.327,-0.322C0.305,-0.344 0.275,-0.355 0.238,-0.355C0.221,-0.355 0.205,-0.353 0.19,-0.349C0.175,-0.346 0.16,-0.34 0.143,-0.332L0.071,-0.332L0.071,-0.669L0.433,-0.669L0.42,-0.597Z"
                          style="fill:rgb(255,219,0);fill-rule:nonzero;"/>
                </g>
            </g>
            <g transform="matrix(0.54717,0,0,0.471698,231.283,-329.83)">
                <path d="M310.093,1085.47L334.845,1134.97L285.342,1134.97L310.093,1085.47Z"
                      style="fill:none;stroke:rgb(255,219,0);stroke-width:6.75px;stroke-linecap:square;stroke-linejoin:round;stroke-miterlimit:1.5;"/>
            </g>
        </g>
        <g transform="matrix(1,0,0,1,481.411,142.257)">
            <g transform="matrix(1,0,0,1,227.399,-176.277)">
                <g transform="matrix(29.1667,0,0,29.1667,187.27,347.879)">
                    <path d="M0.473,-0.689L0.462,-0.613L0.195,-0.613L0.195,-0.388L0.427,-0.388L0.427,-0.312L0.195,-0.312L0.195,-0.076L0.481,-0.076L0.481,-0L0.1,-0L0.1,-0.689L0.473,-0.689Z"
                          style="fill:rgb(255,219,0);fill-rule:nonzero;"/>
                </g>
                <g transform="matrix(29.1667,0,0,29.1667,202.875,347.879)">
                    <path d="M0.716,-0L0.624,-0L0.6,-0.311C0.59,-0.433 0.584,-0.527 0.583,-0.592L0.434,-0.078L0.345,-0.078L0.188,-0.593C0.188,-0.51 0.184,-0.413 0.175,-0.304L0.152,-0L0.062,-0L0.119,-0.689L0.247,-0.689L0.392,-0.188L0.53,-0.689L0.659,-0.689L0.716,-0Z"
                          style="fill:rgb(255,219,0);fill-rule:nonzero;"/>
                </g>
                <g transform="matrix(29.1667,0,0,29.1667,225.566,347.879)">
                    <path d="M0.467,-0L0.415,-0.173L0.154,-0.173L0.102,-0L0.006,-0L0.227,-0.689L0.347,-0.689L0.567,-0L0.467,-0ZM0.177,-0.25L0.392,-0.25L0.285,-0.61L0.177,-0.25Z"
                          style="fill:rgb(255,219,0);fill-rule:nonzero;"/>
                </g>
                <g transform="matrix(29.1667,0,0,29.1667,242.279,347.879)">
                    <rect x="0.1" y="-0.689" width="0.095" height="0.689"
                          style="fill:rgb(255,219,0);fill-rule:nonzero;"/>
                </g>
                <g transform="matrix(29.1667,0,0,29.1667,250.883,347.879)">
                    <path d="M0.195,-0.689L0.195,-0.083L0.478,-0.083L0.467,-0L0.1,-0L0.1,-0.689L0.195,-0.689Z"
                          style="fill:rgb(255,219,0);fill-rule:nonzero;"/>
                </g>
                <g transform="matrix(29.1667,0,0,29.1667,264.445,347.879)">
                    <path d="M0.414,-0.669L0.414,-0.6L0.164,0.01L0.08,-0.018L0.321,-0.594L0.025,-0.594L0.025,-0.669L0.414,-0.669Z"
                          style="fill:rgb(255,219,0);fill-rule:nonzero;"/>
                </g>
                <g transform="matrix(29.1667,0,0,29.1667,276.812,347.879)">
                    <path d="M0.365,-0.359C0.459,-0.321 0.506,-0.261 0.506,-0.179C0.506,-0.142 0.496,-0.11 0.476,-0.081C0.457,-0.051 0.429,-0.029 0.394,-0.013C0.359,0.004 0.319,0.012 0.274,0.012C0.229,0.012 0.189,0.004 0.154,-0.012C0.119,-0.028 0.093,-0.05 0.074,-0.079C0.055,-0.108 0.045,-0.14 0.045,-0.177C0.045,-0.218 0.056,-0.253 0.079,-0.281C0.101,-0.309 0.134,-0.332 0.177,-0.351C0.142,-0.369 0.116,-0.391 0.099,-0.417C0.082,-0.442 0.073,-0.472 0.073,-0.507C0.073,-0.543 0.083,-0.574 0.102,-0.6C0.121,-0.626 0.146,-0.646 0.177,-0.659C0.207,-0.672 0.241,-0.679 0.276,-0.679C0.311,-0.679 0.344,-0.673 0.375,-0.66C0.406,-0.647 0.431,-0.628 0.45,-0.603C0.469,-0.577 0.479,-0.546 0.479,-0.51C0.479,-0.477 0.47,-0.448 0.451,-0.424C0.432,-0.4 0.404,-0.378 0.365,-0.359ZM0.276,-0.61C0.241,-0.61 0.214,-0.601 0.194,-0.583C0.173,-0.565 0.163,-0.539 0.163,-0.506C0.163,-0.474 0.173,-0.45 0.193,-0.433C0.212,-0.416 0.244,-0.401 0.287,-0.387L0.304,-0.381C0.334,-0.398 0.356,-0.417 0.369,-0.436C0.382,-0.455 0.389,-0.479 0.389,-0.507C0.389,-0.538 0.379,-0.563 0.36,-0.582C0.34,-0.601 0.312,-0.61 0.276,-0.61ZM0.275,-0.061C0.316,-0.061 0.349,-0.072 0.374,-0.093C0.398,-0.114 0.41,-0.143 0.41,-0.178C0.41,-0.202 0.405,-0.222 0.396,-0.238C0.387,-0.255 0.372,-0.269 0.351,-0.281C0.33,-0.294 0.301,-0.306 0.264,-0.319L0.239,-0.328C0.206,-0.312 0.181,-0.292 0.165,-0.268C0.149,-0.243 0.141,-0.213 0.141,-0.177C0.141,-0.14 0.153,-0.112 0.177,-0.092C0.201,-0.071 0.234,-0.061 0.275,-0.061Z"
                          style="fill:rgb(255,219,0);fill-rule:nonzero;"/>
                </g>
                <g transform="matrix(29.1667,0,0,29.1667,292.883,347.879)">
                    <path d="M0.365,-0.359C0.459,-0.321 0.506,-0.261 0.506,-0.179C0.506,-0.142 0.496,-0.11 0.476,-0.081C0.457,-0.051 0.429,-0.029 0.394,-0.013C0.359,0.004 0.319,0.012 0.274,0.012C0.229,0.012 0.189,0.004 0.154,-0.012C0.119,-0.028 0.093,-0.05 0.074,-0.079C0.055,-0.108 0.045,-0.14 0.045,-0.177C0.045,-0.218 0.056,-0.253 0.079,-0.281C0.101,-0.309 0.134,-0.332 0.177,-0.351C0.142,-0.369 0.116,-0.391 0.099,-0.417C0.082,-0.442 0.073,-0.472 0.073,-0.507C0.073,-0.543 0.083,-0.574 0.102,-0.6C0.121,-0.626 0.146,-0.646 0.177,-0.659C0.207,-0.672 0.241,-0.679 0.276,-0.679C0.311,-0.679 0.344,-0.673 0.375,-0.66C0.406,-0.647 0.431,-0.628 0.45,-0.603C0.469,-0.577 0.479,-0.546 0.479,-0.51C0.479,-0.477 0.47,-0.448 0.451,-0.424C0.432,-0.4 0.404,-0.378 0.365,-0.359ZM0.276,-0.61C0.241,-0.61 0.214,-0.601 0.194,-0.583C0.173,-0.565 0.163,-0.539 0.163,-0.506C0.163,-0.474 0.173,-0.45 0.193,-0.433C0.212,-0.416 0.244,-0.401 0.287,-0.387L0.304,-0.381C0.334,-0.398 0.356,-0.417 0.369,-0.436C0.382,-0.455 0.389,-0.479 0.389,-0.507C0.389,-0.538 0.379,-0.563 0.36,-0.582C0.34,-0.601 0.312,-0.61 0.276,-0.61ZM0.275,-0.061C0.316,-0.061 0.349,-0.072 0.374,-0.093C0.398,-0.114 0.41,-0.143 0.41,-0.178C0.41,-0.202 0.405,-0.222 0.396,-0.238C0.387,-0.255 0.372,-0.269 0.351,-0.281C0.33,-0.294 0.301,-0.306 0.264,-0.319L0.239,-0.328C0.206,-0.312 0.181,-0.292 0.165,-0.268C0.149,-0.243 0.141,-0.213 0.141,-0.177C0.141,-0.14 0.153,-0.112 0.177,-0.092C0.201,-0.071 0.234,-0.061 0.275,-0.061Z"
                          style="fill:rgb(255,219,0);fill-rule:nonzero;"/>
                </g>
                <g transform="matrix(29.1667,0,0,29.1667,308.516,347.879)">
                    <path d="M0.414,-0.669L0.414,-0.6L0.164,0.01L0.08,-0.018L0.321,-0.594L0.025,-0.594L0.025,-0.669L0.414,-0.669Z"
                          style="fill:rgb(255,219,0);fill-rule:nonzero;"/>
                </g>
            </g>
            <g transform="matrix(0.54717,0,0,0.471698,231.283,-329.83)">
                <path d="M310.093,1085.47L334.845,1134.97L285.342,1134.97L310.093,1085.47Z"
                      style="fill:none;stroke:rgb(255,219,0);stroke-width:6.75px;stroke-linecap:square;stroke-linejoin:round;stroke-miterlimit:1.5;"/>
            </g>
        </g>
        <g transform="matrix(1,0,0,1,558.658,676.111)">
            <g transform="matrix(0.870917,0,0,1,27.3822,-33.1949)">
                <rect x="425.749" y="172.339" width="241.499" height="43.039"/>
            </g>
            <g transform="matrix(1,0,0,1,227.399,-176.277)">
                <g transform="matrix(29.1667,0,0,29.1667,187.27,347.879)">
                    <path d="M0.467,-0L0.415,-0.173L0.154,-0.173L0.102,-0L0.006,-0L0.227,-0.689L0.347,-0.689L0.567,-0L0.467,-0ZM0.177,-0.25L0.392,-0.25L0.285,-0.61L0.177,-0.25Z"
                          style="fill:rgb(255,24,0);fill-rule:nonzero;"/>
                </g>
                <g transform="matrix(29.1667,0,0,29.1667,203.983,347.879)">
                    <path d="M0.195,-0.689L0.195,-0.083L0.478,-0.083L0.467,-0L0.1,-0L0.1,-0.689L0.195,-0.689Z"
                          style="fill:rgb(255,24,0);fill-rule:nonzero;"/>
                </g>
                <g transform="matrix(29.1667,0,0,29.1667,218.508,347.879)">
                    <path d="M0.302,-0.292L0.195,-0.292L0.195,-0L0.1,-0L0.1,-0.689L0.281,-0.689C0.367,-0.689 0.432,-0.673 0.476,-0.64C0.521,-0.607 0.543,-0.559 0.543,-0.494C0.543,-0.446 0.531,-0.407 0.506,-0.377C0.481,-0.347 0.444,-0.324 0.394,-0.309L0.58,-0L0.467,-0L0.302,-0.292ZM0.291,-0.365C0.341,-0.365 0.379,-0.375 0.404,-0.396C0.429,-0.416 0.442,-0.449 0.442,-0.494C0.442,-0.537 0.429,-0.568 0.404,-0.587C0.378,-0.606 0.337,-0.615 0.28,-0.615L0.195,-0.615L0.195,-0.365L0.291,-0.365Z"
                          style="fill:rgb(255,24,0);fill-rule:nonzero;"/>
                </g>
                <g transform="matrix(29.1667,0,0,29.1667,235.57,347.879)">
                    <path d="M0.507,-0.689L0.497,-0.608L0.306,-0.608L0.306,-0L0.211,-0L0.211,-0.608L0.015,-0.608L0.015,-0.689L0.507,-0.689Z"
                          style="fill:rgb(255,24,0);fill-rule:nonzero;"/>
                </g>
                <g transform="matrix(29.1667,0,0,29.1667,250.066,347.879)">
                    <path d="M0.259,-0.679C0.33,-0.679 0.383,-0.656 0.42,-0.61C0.457,-0.563 0.475,-0.5 0.475,-0.419C0.475,-0.328 0.463,-0.254 0.438,-0.199C0.413,-0.143 0.376,-0.099 0.325,-0.066C0.274,-0.033 0.206,-0.003 0.119,0.022L0.098,-0.047C0.187,-0.072 0.256,-0.107 0.304,-0.15C0.351,-0.193 0.377,-0.251 0.38,-0.323C0.365,-0.299 0.344,-0.28 0.318,-0.265C0.292,-0.25 0.263,-0.243 0.23,-0.243C0.195,-0.243 0.164,-0.252 0.136,-0.27C0.108,-0.287 0.086,-0.312 0.07,-0.344C0.053,-0.377 0.045,-0.415 0.045,-0.458C0.045,-0.503 0.055,-0.543 0.074,-0.576C0.093,-0.609 0.119,-0.635 0.152,-0.653C0.184,-0.67 0.22,-0.679 0.259,-0.679ZM0.249,-0.315C0.302,-0.315 0.346,-0.343 0.382,-0.398C0.383,-0.472 0.374,-0.525 0.355,-0.558C0.335,-0.59 0.304,-0.606 0.261,-0.606C0.222,-0.606 0.191,-0.593 0.17,-0.567C0.149,-0.541 0.138,-0.504 0.138,-0.456C0.138,-0.409 0.148,-0.374 0.168,-0.35C0.188,-0.327 0.215,-0.315 0.249,-0.315Z"
                          style="fill:rgb(255,24,0);fill-rule:nonzero;"/>
                </g>
                <g transform="matrix(29.1667,0,0,29.1667,265.379,347.879)">
                    <path d="M0.259,-0.679C0.33,-0.679 0.383,-0.656 0.42,-0.61C0.457,-0.563 0.475,-0.5 0.475,-0.419C0.475,-0.328 0.463,-0.254 0.438,-0.199C0.413,-0.143 0.376,-0.099 0.325,-0.066C0.274,-0.033 0.206,-0.003 0.119,0.022L0.098,-0.047C0.187,-0.072 0.256,-0.107 0.304,-0.15C0.351,-0.193 0.377,-0.251 0.38,-0.323C0.365,-0.299 0.344,-0.28 0.318,-0.265C0.292,-0.25 0.263,-0.243 0.23,-0.243C0.195,-0.243 0.164,-0.252 0.136,-0.27C0.108,-0.287 0.086,-0.312 0.07,-0.344C0.053,-0.377 0.045,-0.415 0.045,-0.458C0.045,-0.503 0.055,-0.543 0.074,-0.576C0.093,-0.609 0.119,-0.635 0.152,-0.653C0.184,-0.67 0.22,-0.679 0.259,-0.679ZM0.249,-0.315C0.302,-0.315 0.346,-0.343 0.382,-0.398C0.383,-0.472 0.374,-0.525 0.355,-0.558C0.335,-0.59 0.304,-0.606 0.261,-0.606C0.222,-0.606 0.191,-0.593 0.17,-0.567C0.149,-0.541 0.138,-0.504 0.138,-0.456C0.138,-0.409 0.148,-0.374 0.168,-0.35C0.188,-0.327 0.215,-0.315 0.249,-0.315Z"
                          style="fill:rgb(255,24,0);fill-rule:nonzero;"/>
                </g>
                <g transform="matrix(29.1667,0,0,29.1667,280.691,347.879)">
                    <path d="M0.259,-0.679C0.33,-0.679 0.383,-0.656 0.42,-0.61C0.457,-0.563 0.475,-0.5 0.475,-0.419C0.475,-0.328 0.463,-0.254 0.438,-0.199C0.413,-0.143 0.376,-0.099 0.325,-0.066C0.274,-0.033 0.206,-0.003 0.119,0.022L0.098,-0.047C0.187,-0.072 0.256,-0.107 0.304,-0.15C0.351,-0.193 0.377,-0.251 0.38,-0.323C0.365,-0.299 0.344,-0.28 0.318,-0.265C0.292,-0.25 0.263,-0.243 0.23,-0.243C0.195,-0.243 0.164,-0.252 0.136,-0.27C0.108,-0.287 0.086,-0.312 0.07,-0.344C0.053,-0.377 0.045,-0.415 0.045,-0.458C0.045,-0.503 0.055,-0.543 0.074,-0.576C0.093,-0.609 0.119,-0.635 0.152,-0.653C0.184,-0.67 0.22,-0.679 0.259,-0.679ZM0.249,-0.315C0.302,-0.315 0.346,-0.343 0.382,-0.398C0.383,-0.472 0.374,-0.525 0.355,-0.558C0.335,-0.59 0.304,-0.606 0.261,-0.606C0.222,-0.606 0.191,-0.593 0.17,-0.567C0.149,-0.541 0.138,-0.504 0.138,-0.456C0.138,-0.409 0.148,-0.374 0.168,-0.35C0.188,-0.327 0.215,-0.315 0.249,-0.315Z"
                          style="fill:rgb(255,24,0);fill-rule:nonzero;"/>
                </g>
            </g>
            <g transform="matrix(0.54717,0,0,0.471698,231.283,-329.83)">
                <path d="M310.093,1085.47L334.845,1134.97L285.342,1134.97L310.093,1085.47Z"
                      style="fill:none;stroke:rgb(255,24,0);stroke-width:6.75px;stroke-linecap:square;stroke-linejoin:round;stroke-miterlimit:1.5;"/>
            </g>
        </g>
        <g transform="matrix(1,0,0,1,219.093,-51.1406)">
            <g transform="matrix(0.870917,0,0,1,27.3822,-33.1949)">
                <rect x="425.749" y="172.339" width="241.499" height="43.039"/>
            </g>
            <g transform="matrix(1,0,0,1,227.399,-176.277)">
                <g transform="matrix(29.1667,0,0,29.1667,187.27,347.879)">
                    <path d="M0.507,-0.689L0.497,-0.608L0.306,-0.608L0.306,-0L0.211,-0L0.211,-0.608L0.015,-0.608L0.015,-0.689L0.507,-0.689Z"
                          style="fill:rgb(255,219,0);fill-rule:nonzero;"/>
                </g>
                <g transform="matrix(29.1667,0,0,29.1667,200.891,347.879)">
                    <path d="M0.467,-0L0.415,-0.173L0.154,-0.173L0.102,-0L0.006,-0L0.227,-0.689L0.347,-0.689L0.567,-0L0.467,-0ZM0.177,-0.25L0.392,-0.25L0.285,-0.61L0.177,-0.25Z"
                          style="fill:rgb(255,219,0);fill-rule:nonzero;"/>
                </g>
                <g transform="matrix(29.1667,0,0,29.1667,217.604,347.879)">
                    <path d="M0.27,-0.701C0.316,-0.701 0.355,-0.695 0.388,-0.682C0.421,-0.669 0.452,-0.648 0.483,-0.621L0.431,-0.563C0.405,-0.584 0.38,-0.599 0.355,-0.609C0.33,-0.618 0.303,-0.623 0.274,-0.623C0.238,-0.623 0.208,-0.615 0.185,-0.598C0.162,-0.581 0.15,-0.557 0.15,-0.525C0.15,-0.505 0.154,-0.488 0.162,-0.474C0.17,-0.461 0.185,-0.448 0.206,-0.437C0.228,-0.426 0.26,-0.414 0.301,-0.401C0.344,-0.388 0.38,-0.373 0.409,-0.358C0.438,-0.343 0.461,-0.322 0.478,-0.295C0.496,-0.268 0.505,-0.233 0.505,-0.192C0.505,-0.152 0.495,-0.117 0.475,-0.086C0.456,-0.055 0.428,-0.031 0.391,-0.014C0.354,0.003 0.31,0.012 0.259,0.012C0.164,0.012 0.086,-0.018 0.025,-0.077L0.077,-0.135C0.105,-0.112 0.133,-0.095 0.162,-0.084C0.191,-0.072 0.223,-0.066 0.258,-0.066C0.301,-0.066 0.336,-0.077 0.364,-0.098C0.392,-0.118 0.406,-0.149 0.406,-0.189C0.406,-0.212 0.402,-0.231 0.393,-0.246C0.384,-0.261 0.37,-0.274 0.348,-0.286C0.328,-0.298 0.297,-0.31 0.257,-0.322C0.186,-0.343 0.135,-0.369 0.102,-0.399C0.069,-0.429 0.053,-0.47 0.053,-0.521C0.053,-0.556 0.062,-0.587 0.081,-0.614C0.099,-0.641 0.125,-0.663 0.158,-0.678C0.191,-0.693 0.228,-0.701 0.27,-0.701Z"
                          style="fill:rgb(255,219,0);fill-rule:nonzero;"/>
                </g>
                <g transform="matrix(29.1667,0,0,29.1667,233.5,347.879)">
                    <path d="M0.195,-0.689L0.195,-0L0.1,-0L0.1,-0.689L0.195,-0.689ZM0.57,-0.689L0.309,-0.374L0.589,-0L0.472,-0L0.2,-0.368L0.462,-0.689L0.57,-0.689Z"
                          style="fill:rgb(255,219,0);fill-rule:nonzero;"/>
                </g>
                <g transform="matrix(29.1667,0,0,29.1667,249.804,347.879)">
                    <path d="M0.502,-0.238L0.502,-0.165L0.415,-0.165L0.415,-0L0.326,-0L0.326,-0.165L0.04,-0.165L0.04,-0.231L0.241,-0.679L0.318,-0.647L0.137,-0.238L0.327,-0.238L0.335,-0.418L0.415,-0.418L0.415,-0.238L0.502,-0.238Z"
                          style="fill:rgb(255,219,0);fill-rule:nonzero;"/>
                </g>
                <g transform="matrix(29.1667,0,0,29.1667,265.029,347.879)">
                    <path d="M0.42,-0.597L0.159,-0.597L0.159,-0.4C0.193,-0.417 0.229,-0.426 0.266,-0.426C0.323,-0.426 0.369,-0.407 0.404,-0.37C0.439,-0.332 0.456,-0.28 0.456,-0.214C0.456,-0.17 0.446,-0.131 0.427,-0.097C0.408,-0.062 0.381,-0.035 0.345,-0.017C0.311,0.002 0.27,0.012 0.224,0.012C0.183,0.012 0.147,0.005 0.115,-0.01C0.083,-0.024 0.053,-0.045 0.026,-0.073L0.08,-0.126C0.101,-0.105 0.123,-0.089 0.146,-0.079C0.169,-0.068 0.194,-0.063 0.223,-0.063C0.266,-0.063 0.299,-0.076 0.324,-0.103C0.348,-0.13 0.36,-0.167 0.36,-0.216C0.36,-0.265 0.349,-0.3 0.327,-0.322C0.305,-0.344 0.275,-0.355 0.238,-0.355C0.221,-0.355 0.205,-0.353 0.19,-0.349C0.175,-0.346 0.16,-0.34 0.143,-0.332L0.071,-0.332L0.071,-0.669L0.433,-0.669L0.42,-0.597Z"
                          style="fill:rgb(255,219,0);fill-rule:nonzero;"/>
                </g>
                <g transform="matrix(29.1667,0,0,29.1667,279.641,347.879)">
                    <path d="M0.308,-0.44C0.342,-0.44 0.373,-0.432 0.401,-0.416C0.429,-0.4 0.451,-0.376 0.468,-0.344C0.485,-0.312 0.493,-0.273 0.493,-0.227C0.493,-0.18 0.484,-0.138 0.465,-0.102C0.446,-0.065 0.42,-0.037 0.388,-0.018C0.355,0.002 0.319,0.012 0.28,0.012C0.202,0.012 0.145,-0.017 0.109,-0.075C0.073,-0.132 0.055,-0.212 0.055,-0.314C0.055,-0.387 0.065,-0.451 0.086,-0.505C0.106,-0.561 0.135,-0.603 0.173,-0.633C0.211,-0.664 0.256,-0.679 0.308,-0.679C0.359,-0.679 0.405,-0.665 0.446,-0.638L0.41,-0.577C0.379,-0.596 0.344,-0.606 0.307,-0.606C0.259,-0.606 0.221,-0.583 0.193,-0.537C0.165,-0.491 0.15,-0.429 0.147,-0.352C0.188,-0.411 0.242,-0.44 0.308,-0.44ZM0.28,-0.061C0.319,-0.061 0.348,-0.076 0.369,-0.105C0.39,-0.134 0.4,-0.174 0.4,-0.224C0.4,-0.319 0.364,-0.367 0.292,-0.367C0.263,-0.367 0.236,-0.359 0.211,-0.343C0.186,-0.326 0.165,-0.304 0.148,-0.275C0.15,-0.202 0.162,-0.148 0.183,-0.113C0.203,-0.078 0.236,-0.061 0.28,-0.061Z"
                          style="fill:rgb(255,219,0);fill-rule:nonzero;"/>
                </g>
                <g transform="matrix(29.1667,0,0,29.1667,294.458,347.879)">
                    <path d="M0.414,-0.669L0.414,-0.6L0.164,0.01L0.08,-0.018L0.321,-0.594L0.025,-0.594L0.025,-0.669L0.414,-0.669Z"
                          style="fill:rgb(255,219,0);fill-rule:nonzero;"/>
                </g>
            </g>
            <g transform="matrix(0.54717,0,0,0.471698,231.283,-329.83)">
                <path d="M310.093,1085.47L334.845,1134.97L285.342,1134.97L310.093,1085.47Z"
                      style="fill:none;stroke:rgb(255,219,0);stroke-width:6.75px;stroke-linecap:square;stroke-linejoin:round;stroke-miterlimit:1.5;"/>
            </g>
        </g>
        <g transform="matrix(1,0,0,1,-292.334,-3.63758)">
            <g transform="matrix(0.870917,0,0,1,27.3822,-33.1949)">
                <rect x="425.749" y="172.339" width="241.499" height="43.039"/>
            </g>
            <g transform="matrix(1,0,0,1,227.399,-176.277)">
                <g transform="matrix(29.1667,0,0,29.1667,187.27,347.879)">
                    <path d="M0.507,-0.689L0.497,-0.608L0.306,-0.608L0.306,-0L0.211,-0L0.211,-0.608L0.015,-0.608L0.015,-0.689L0.507,-0.689Z"
                          style="fill:rgb(0,227,255);fill-rule:nonzero;"/>
                </g>
                <g transform="matrix(29.1667,0,0,29.1667,200.891,347.879)">
                    <path d="M0.467,-0L0.415,-0.173L0.154,-0.173L0.102,-0L0.006,-0L0.227,-0.689L0.347,-0.689L0.567,-0L0.467,-0ZM0.177,-0.25L0.392,-0.25L0.285,-0.61L0.177,-0.25Z"
                          style="fill:rgb(0,227,255);fill-rule:nonzero;"/>
                </g>
                <g transform="matrix(29.1667,0,0,29.1667,217.604,347.879)">
                    <path d="M0.27,-0.701C0.316,-0.701 0.355,-0.695 0.388,-0.682C0.421,-0.669 0.452,-0.648 0.483,-0.621L0.431,-0.563C0.405,-0.584 0.38,-0.599 0.355,-0.609C0.33,-0.618 0.303,-0.623 0.274,-0.623C0.238,-0.623 0.208,-0.615 0.185,-0.598C0.162,-0.581 0.15,-0.557 0.15,-0.525C0.15,-0.505 0.154,-0.488 0.162,-0.474C0.17,-0.461 0.185,-0.448 0.206,-0.437C0.228,-0.426 0.26,-0.414 0.301,-0.401C0.344,-0.388 0.38,-0.373 0.409,-0.358C0.438,-0.343 0.461,-0.322 0.478,-0.295C0.496,-0.268 0.505,-0.233 0.505,-0.192C0.505,-0.152 0.495,-0.117 0.475,-0.086C0.456,-0.055 0.428,-0.031 0.391,-0.014C0.354,0.003 0.31,0.012 0.259,0.012C0.164,0.012 0.086,-0.018 0.025,-0.077L0.077,-0.135C0.105,-0.112 0.133,-0.095 0.162,-0.084C0.191,-0.072 0.223,-0.066 0.258,-0.066C0.301,-0.066 0.336,-0.077 0.364,-0.098C0.392,-0.118 0.406,-0.149 0.406,-0.189C0.406,-0.212 0.402,-0.231 0.393,-0.246C0.384,-0.261 0.37,-0.274 0.348,-0.286C0.328,-0.298 0.297,-0.31 0.257,-0.322C0.186,-0.343 0.135,-0.369 0.102,-0.399C0.069,-0.429 0.053,-0.47 0.053,-0.521C0.053,-0.556 0.062,-0.587 0.081,-0.614C0.099,-0.641 0.125,-0.663 0.158,-0.678C0.191,-0.693 0.228,-0.701 0.27,-0.701Z"
                          style="fill:rgb(0,227,255);fill-rule:nonzero;"/>
                </g>
                <g transform="matrix(29.1667,0,0,29.1667,233.5,347.879)">
                    <path d="M0.195,-0.689L0.195,-0L0.1,-0L0.1,-0.689L0.195,-0.689ZM0.57,-0.689L0.309,-0.374L0.589,-0L0.472,-0L0.2,-0.368L0.462,-0.689L0.57,-0.689Z"
                          style="fill:rgb(0,227,255);fill-rule:nonzero;"/>
                </g>
                <g transform="matrix(29.1667,0,0,29.1667,249.541,347.879)">
                    <path d="M0.323,-0.669L0.323,-0L0.231,-0L0.231,-0.571L0.075,-0.476L0.035,-0.541L0.242,-0.669L0.323,-0.669Z"
                          style="fill:rgb(0,227,255);fill-rule:nonzero;"/>
                </g>
                <g transform="matrix(29.1667,0,0,29.1667,262.17,347.879)">
                    <path d="M0.228,-0.679C0.268,-0.679 0.303,-0.671 0.334,-0.655C0.364,-0.639 0.387,-0.617 0.404,-0.59C0.421,-0.562 0.429,-0.531 0.429,-0.496C0.429,-0.455 0.42,-0.416 0.402,-0.379C0.383,-0.342 0.355,-0.301 0.317,-0.258C0.279,-0.215 0.221,-0.154 0.144,-0.077L0.445,-0.077L0.434,-0L0.039,-0L0.039,-0.073C0.128,-0.166 0.192,-0.234 0.229,-0.277C0.266,-0.32 0.293,-0.357 0.309,-0.389C0.325,-0.421 0.333,-0.455 0.333,-0.492C0.333,-0.527 0.323,-0.554 0.303,-0.574C0.283,-0.593 0.256,-0.603 0.223,-0.603C0.196,-0.603 0.172,-0.597 0.151,-0.586C0.13,-0.575 0.108,-0.556 0.085,-0.53L0.025,-0.578C0.052,-0.612 0.083,-0.637 0.116,-0.654C0.149,-0.671 0.187,-0.679 0.228,-0.679Z"
                          style="fill:rgb(0,227,255);fill-rule:nonzero;"/>
                </g>
                <g transform="matrix(29.1667,0,0,29.1667,276.462,347.879)">
                    <path d="M0.225,-0.679C0.266,-0.679 0.302,-0.671 0.332,-0.656C0.361,-0.641 0.384,-0.62 0.4,-0.594C0.415,-0.568 0.423,-0.54 0.423,-0.509C0.423,-0.468 0.411,-0.435 0.388,-0.408C0.364,-0.382 0.332,-0.364 0.293,-0.355C0.338,-0.351 0.374,-0.335 0.402,-0.307C0.43,-0.279 0.444,-0.241 0.444,-0.193C0.444,-0.154 0.435,-0.119 0.416,-0.088C0.397,-0.057 0.371,-0.032 0.336,-0.015C0.301,0.003 0.261,0.012 0.216,0.012C0.175,0.012 0.138,0.004 0.104,-0.011C0.07,-0.025 0.04,-0.048 0.015,-0.078L0.07,-0.129C0.092,-0.106 0.115,-0.09 0.138,-0.079C0.161,-0.068 0.186,-0.063 0.213,-0.063C0.255,-0.063 0.288,-0.075 0.312,-0.099C0.336,-0.122 0.348,-0.154 0.348,-0.194C0.348,-0.238 0.337,-0.269 0.314,-0.287C0.291,-0.305 0.258,-0.314 0.215,-0.314L0.165,-0.314L0.176,-0.385L0.21,-0.385C0.245,-0.385 0.274,-0.395 0.297,-0.416C0.32,-0.437 0.331,-0.466 0.331,-0.503C0.331,-0.534 0.321,-0.559 0.301,-0.578C0.281,-0.596 0.254,-0.605 0.22,-0.605C0.194,-0.605 0.17,-0.6 0.149,-0.591C0.127,-0.582 0.105,-0.566 0.082,-0.545L0.034,-0.6C0.091,-0.653 0.154,-0.679 0.225,-0.679Z"
                          style="fill:rgb(0,227,255);fill-rule:nonzero;"/>
                </g>
                <g transform="matrix(29.1667,0,0,29.1667,290.87,347.879)">
                    <path d="M0.502,-0.238L0.502,-0.165L0.415,-0.165L0.415,-0L0.326,-0L0.326,-0.165L0.04,-0.165L0.04,-0.231L0.241,-0.679L0.318,-0.647L0.137,-0.238L0.327,-0.238L0.335,-0.418L0.415,-0.418L0.415,-0.238L0.502,-0.238Z"
                          style="fill:rgb(0,227,255);fill-rule:nonzero;"/>
                </g>
            </g>
            <g transform="matrix(0.54717,0,0,0.471698,231.283,-329.83)">
                <path d="M310.093,1085.47L334.845,1134.97L285.342,1134.97L310.093,1085.47Z"
                      style="fill:none;stroke:rgb(67,236,255);stroke-width:6.75px;stroke-linecap:square;stroke-linejoin:round;stroke-miterlimit:1.5;"/>
            </g>
        </g>
        <g id="bolt.svg" transform="matrix(0.136133,0,0,0.136133,643.35,916.495)">
            <g transform="matrix(1,0,0,1,-192,-256)">
                <path d="M274.8,6.288C279.4,2.237 285.3,0 291.4,0C308.6,0 320.6,17.05 314.8,33.27L246.7,224L356.1,224C371.9,224 384,236.1 384,251C384,258.8 380.7,266.2 374.9,271.3L109.1,505.8C104.6,509.8 98.7,512 92.63,512C75.41,512 63.39,494.9 69.18,478.7L137.3,288L25.81,288C11.56,288 0,276.4 0,262.2C0,254.8 3.153,247.8 8.664,242.9L274.8,6.288ZM275.4,48.65L42.08,256L160,256C165.2,256 170.1,258.5 173.1,262.8C176.1,267 176.8,272.5 175.1,277.4L108.6,463.6L343.8,256L224,256C218.8,256 213.9,253.5 210.9,249.2C207.9,244.1 207.2,239.5 208.9,234.6L275.4,48.65Z"
                      style="fill:rgb(255,194,0);fill-rule:nonzero;"/>
            </g>
        </g>
    </g>
</svg>
