<?xml version="1.0" encoding="UTF-8" standalone="no"?><!DOCTYPE svg PUBLIC "-//W3C//DTD SVG 1.1//EN" "http://www.w3.org/Graphics/SVG/1.1/DTD/svg11.dtd"><svg width="100%" height="100%" viewBox="0 0 998 271" version="1.1" xmlns="http://www.w3.org/2000/svg" xmlns:xlink="http://www.w3.org/1999/xlink" xml:space="preserve" xmlns:serif="http://www.serif.com/" style="fill-rule:evenodd;clip-rule:evenodd;stroke-linejoin:round;stroke-miterlimit:2;"><rect id="Dark-Transparent" x="0" y="0" width="997.302" height="270.508" style="fill:none;"/><g transform="matrix(1,0,0,1,-391.084,-78.7391)"><g transform="matrix(166.667,0,0,166.667,658.084,284.262)"><path d="M0.458,-0.351l-0,0.068l-0.292,-0l-0,0.283l-0.087,-0l0,-0.64l0.423,0l0,0.068l-0.336,0l-0,0.221l0.292,-0Z" style="fill:#dae1e2;fill-rule:nonzero;"/></g><g transform="matrix(166.667,0,0,166.667,745.486,284.262)"><rect x="0.07" y="-0.686" width="0.086" height="0.686" style="fill:#dae1e2;fill-rule:nonzero;"/></g><g transform="matrix(166.667,0,0,166.667,783.247,284.262)"><path d="M0.156,-0.476l0,0.476l-0.086,-0l-0,-0.476l0.086,0Zm0,-0.21l0,0.089l-0.086,-0l-0,-0.089l0.086,0Z" style="fill:#dae1e2;fill-rule:nonzero;"/></g><g transform="matrix(166.667,0,0,166.667,821.007,284.262)"><path d="M0.044,-0.198l-0,-0.01c-0,-0.077 0.017,-0.139 0.05,-0.186c0.034,-0.046 0.08,-0.069 0.139,-0.069c0.059,0 0.105,0.024 0.136,0.071l0.011,-0.062l0.069,-0l-0,0.478c-0,0.061 -0.018,0.108 -0.053,0.141c-0.036,0.032 -0.087,0.048 -0.154,0.048c-0.023,0 -0.048,-0.003 -0.074,-0.009c-0.026,-0.006 -0.05,-0.015 -0.07,-0.026l0.022,-0.067c0.016,0.009 0.035,0.016 0.057,0.021c0.021,0.006 0.043,0.009 0.064,0.009c0.042,-0 0.073,-0.01 0.092,-0.029c0.02,-0.019 0.029,-0.048 0.029,-0.088l0,-0.054c-0.031,0.041 -0.075,0.061 -0.132,0.061c-0.057,-0 -0.102,-0.021 -0.136,-0.063c-0.033,-0.042 -0.05,-0.097 -0.05,-0.166Zm0.086,-0.01l0,0.01c0,0.049 0.011,0.088 0.031,0.116c0.021,0.028 0.052,0.042 0.092,0.042c0.049,0 0.086,-0.022 0.11,-0.068l-0,-0.219c-0.025,-0.044 -0.061,-0.066 -0.109,-0.066c-0.04,0 -0.071,0.017 -0.092,0.05c-0.021,0.034 -0.032,0.079 -0.032,0.135Z" style="fill:#dae1e2;fill-rule:nonzero;"/></g><g transform="matrix(166.667,0,0,166.667,906.294,284.262)"><path d="M0.149,-0.686l0,0.274c0.035,-0.048 0.081,-0.072 0.14,-0.072c0.052,-0 0.092,0.015 0.12,0.046c0.027,0.031 0.041,0.078 0.041,0.14l0,0.298l-0.087,0l0,-0.299c0,-0.039 -0.008,-0.068 -0.025,-0.087c-0.016,-0.019 -0.041,-0.028 -0.075,-0.028c-0.048,-0 -0.086,0.021 -0.114,0.063l0,0.351l-0.086,0l-0,-0.686l0.086,0Z" style="fill:#dae1e2;fill-rule:nonzero;"/></g><g transform="matrix(166.667,0,0,166.667,991.58,284.262)"><path d="M0.09,-0.589l0.088,-0l-0,0.114l0.09,0l-0,0.065l-0.09,-0l-0,0.288c-0,0.041 0.016,0.061 0.05,0.061c0.01,-0 0.021,-0.002 0.032,-0.006l0.011,0.059c-0.015,0.012 -0.037,0.018 -0.065,0.018c-0.037,0 -0.065,-0.011 -0.085,-0.032c-0.021,-0.022 -0.031,-0.055 -0.031,-0.1l0,-0.288l-0.075,-0l0,-0.065l0.075,0l0,-0.114Z" style="fill:#dae1e2;fill-rule:nonzero;"/></g><g transform="matrix(166.667,0,0,166.667,1043.42,284.262)"><path d="M0.166,-0.572l-0,0.248l0.158,-0c0.042,-0 0.074,-0.011 0.096,-0.034c0.022,-0.022 0.033,-0.052 0.033,-0.089c0,-0.037 -0.011,-0.067 -0.033,-0.09c-0.022,-0.023 -0.054,-0.035 -0.096,-0.035l-0.158,0Zm0.158,0.315l-0.158,0l-0,0.257l-0.087,0l0,-0.64l0.245,0c0.067,0 0.12,0.018 0.158,0.052c0.039,0.035 0.058,0.082 0.058,0.14c-0,0.059 -0.019,0.106 -0.057,0.14c-0.038,0.034 -0.091,0.051 -0.159,0.051Z" style="fill:#ffd100;fill-rule:nonzero;"/></g><g transform="matrix(166.667,0,0,166.667,1139.53,284.262)"><rect x="0.07" y="-0.686" width="0.086" height="0.686" style="fill:#ffd100;fill-rule:nonzero;"/></g><g transform="matrix(166.667,0,0,166.667,1177.29,284.262)"><path d="M0.198,0.01c-0.049,0 -0.087,-0.012 -0.113,-0.037c-0.026,-0.025 -0.039,-0.061 -0.039,-0.106c-0,-0.045 0.018,-0.081 0.055,-0.106c0.036,-0.026 0.086,-0.039 0.15,-0.039l0.094,0l-0,-0.047c-0,-0.028 -0.009,-0.05 -0.026,-0.066c-0.017,-0.016 -0.04,-0.024 -0.069,-0.024c-0.029,-0 -0.053,0.007 -0.07,0.021c-0.018,0.014 -0.027,0.031 -0.027,0.051l-0.082,0l-0.001,-0.002c-0.002,-0.036 0.015,-0.068 0.05,-0.096c0.035,-0.028 0.079,-0.042 0.134,-0.042c0.054,-0 0.097,0.014 0.129,0.041c0.033,0.028 0.049,0.067 0.049,0.118l-0,0.229c-0,0.037 0.004,0.069 0.012,0.096l-0.09,-0c-0.006,-0.03 -0.009,-0.054 -0.009,-0.071c-0.017,0.024 -0.039,0.043 -0.064,0.058c-0.026,0.015 -0.054,0.022 -0.083,0.022Zm-0.065,-0.141l-0,0c-0,0.022 0.006,0.038 0.02,0.05c0.013,0.012 0.034,0.018 0.062,0.018c0.028,0 0.055,-0.007 0.08,-0.023c0.026,-0.016 0.042,-0.034 0.05,-0.056l0,-0.077l-0.096,-0c-0.035,-0 -0.063,0.008 -0.084,0.025c-0.021,0.017 -0.032,0.038 -0.032,0.063Z" style="fill:#ffd100;fill-rule:nonzero;"/></g><g transform="matrix(166.667,0,0,166.667,1259.73,284.262)"><path d="M0.063,-0.476l0.077,0l0.006,0.071c0.033,-0.053 0.08,-0.079 0.142,-0.079c0.052,-0 0.092,0.015 0.119,0.045c0.028,0.031 0.042,0.077 0.042,0.139l-0,0.3l-0.087,0l0,-0.298c0,-0.042 -0.008,-0.071 -0.024,-0.089c-0.016,-0.018 -0.042,-0.027 -0.076,-0.027c-0.025,-0 -0.047,0.006 -0.066,0.018c-0.019,0.011 -0.035,0.028 -0.047,0.049l0,0.347l-0.086,-0l-0,-0.476Z" style="fill:#ffd100;fill-rule:nonzero;"/></g></g><g><g><path d="M226.294,58.851l-205.927,59.372c18.394,37.517 49.795,99.876 49.795,99.876l21.777,-52.889" style="fill:url(#_Linear1);"/><path d="M226.294,58.851l-113.647,119.899l-42.485,39.349l125.584,18.136" style="fill:url(#_Linear2);"/><path d="M115.085,176.517l111.209,-117.666l-30.548,177.384l-80.661,-59.718Zm-94.718,-58.294l205.927,-59.372l-134.355,106.359l-71.572,-46.987Z" style="fill:url(#_Linear3);"/><path d="M226.294,58.851l-158.488,66.038l24.133,40.321l134.355,-106.359Z" style="fill:url(#_Linear4);"/><path d="M115.085,176.517l66.233,12.76l44.976,-130.426l-111.209,117.666Z" style="fill:url(#_Linear5);"/></g></g><defs><linearGradient id="_Linear1" x1="0" y1="0" x2="1" y2="0" gradientUnits="userSpaceOnUse" gradientTransform="matrix(-29.7289,44.199,-44.199,-29.7289,99.8911,173.9)"><stop offset="0" style="stop-color:#e3500b;stop-opacity:1"/><stop offset="1" style="stop-color:#ff6d00;stop-opacity:1"/></linearGradient><linearGradient id="_Linear2" x1="0" y1="0" x2="1" y2="0" gradientUnits="userSpaceOnUse" gradientTransform="matrix(-29.7289,44.199,-44.199,-29.7289,99.8911,173.9)"><stop offset="0" style="stop-color:#e3500b;stop-opacity:1"/><stop offset="1" style="stop-color:#ff6d00;stop-opacity:1"/></linearGradient><linearGradient id="_Linear3" x1="0" y1="0" x2="1" y2="0" gradientUnits="userSpaceOnUse" gradientTransform="matrix(-178.257,164.104,-164.104,-178.257,293.342,12.4136)"><stop offset="0" style="stop-color:#e3ff00;stop-opacity:1"/><stop offset="0.5" style="stop-color:#eadb00;stop-opacity:1"/><stop offset="1" style="stop-color:#ff6d00;stop-opacity:1"/></linearGradient><linearGradient id="_Linear4" x1="0" y1="0" x2="1" y2="0" gradientUnits="userSpaceOnUse" gradientTransform="matrix(113.836,-125.766,125.766,113.836,70.1622,218.099)"><stop offset="0" style="stop-color:#7d00ff;stop-opacity:1"/><stop offset="1" style="stop-color:#00bbae;stop-opacity:1"/></linearGradient><linearGradient id="_Linear5" x1="0" y1="0" x2="1" y2="0" gradientUnits="userSpaceOnUse" gradientTransform="matrix(113.836,-125.766,125.766,113.836,70.1622,218.099)"><stop offset="0" style="stop-color:#7d00ff;stop-opacity:1"/><stop offset="1" style="stop-color:#00bbae;stop-opacity:1"/></linearGradient></defs></svg>